<mxfile host="65bd71144e">
    <diagram id="3oKSRpvQD-3Rtn6nESA1" name="Page-1">
        <mxGraphModel dx="590" dy="415" grid="1" gridSize="10" guides="1" tooltips="1" connect="1" arrows="1" fold="1" page="1" pageScale="1" pageWidth="850" pageHeight="1100" math="0" shadow="0">
            <root>
                <mxCell id="0"/>
                <mxCell id="1" parent="0"/>
                <mxCell id="K8wivl5P5FMc2v_rYO8I-10" value="" style="swimlane;childLayout=stackLayout;horizontal=1;startSize=20;horizontalStack=0;fillColor=#f5f5f5;rounded=1;fontSize=14;fontStyle=0;strokeWidth=2;resizeParent=0;resizeLast=1;shadow=0;dashed=0;align=center;strokeColor=#666666;fontColor=#333333;" parent="1" vertex="1">
                    <mxGeometry x="90" y="230" width="90" height="130" as="geometry">
                        <mxRectangle x="90" y="210" width="50" height="40" as="alternateBounds"/>
                    </mxGeometry>
                </mxCell>
                <mxCell id="K8wivl5P5FMc2v_rYO8I-20" value="Login" style="text;html=1;align=center;verticalAlign=middle;resizable=0;points=[];;autosize=1;" parent="K8wivl5P5FMc2v_rYO8I-10" vertex="1">
                    <mxGeometry y="20" width="90" height="110" as="geometry"/>
                </mxCell>
                <mxCell id="NVUlYLoKK_l5uXwqNmR6-7" value="ProfileTab" style="edgeStyle=orthogonalEdgeStyle;rounded=0;orthogonalLoop=1;jettySize=auto;html=1;" parent="1" source="K8wivl5P5FMc2v_rYO8I-23" target="NVUlYLoKK_l5uXwqNmR6-6" edge="1">
                    <mxGeometry relative="1" as="geometry">
                        <Array as="points">
                            <mxPoint x="260" y="220"/>
                            <mxPoint x="260" y="220"/>
                        </Array>
                    </mxGeometry>
                </mxCell>
                <mxCell id="K8wivl5P5FMc2v_rYO8I-23" value="" style="swimlane;childLayout=stackLayout;horizontal=1;startSize=19;horizontalStack=0;fillColor=#fff2cc;rounded=1;fontSize=14;fontStyle=0;strokeWidth=2;resizeParent=0;resizeLast=1;shadow=0;dashed=0;align=center;strokeColor=#d6b656;" parent="1" vertex="1">
                    <mxGeometry x="250" y="230" width="90" height="130" as="geometry">
                        <mxRectangle x="260" y="240" width="50" height="40" as="alternateBounds"/>
                    </mxGeometry>
                </mxCell>
                <mxCell id="K8wivl5P5FMc2v_rYO8I-24" value="Discover" style="text;html=1;align=center;verticalAlign=middle;resizable=0;points=[];;autosize=1;" parent="K8wivl5P5FMc2v_rYO8I-23" vertex="1">
                    <mxGeometry y="19" width="90" height="111" as="geometry"/>
                </mxCell>
                <mxCell id="K8wivl5P5FMc2v_rYO8I-25" value="" style="swimlane;childLayout=stackLayout;horizontal=1;startSize=19;horizontalStack=0;fillColor=#e1d5e7;rounded=1;fontSize=14;fontStyle=0;strokeWidth=2;resizeParent=0;resizeLast=1;shadow=0;dashed=0;align=center;strokeColor=#9673a6;" parent="1" vertex="1">
                    <mxGeometry x="400" y="230" width="90" height="130" as="geometry">
                        <mxRectangle x="260" y="240" width="50" height="40" as="alternateBounds"/>
                    </mxGeometry>
                </mxCell>
                <mxCell id="K8wivl5P5FMc2v_rYO8I-26" value="ChatsList" style="text;html=1;align=center;verticalAlign=middle;resizable=0;points=[];;autosize=1;" parent="K8wivl5P5FMc2v_rYO8I-25" vertex="1">
                    <mxGeometry y="19" width="90" height="111" as="geometry"/>
                </mxCell>
                <mxCell id="K8wivl5P5FMc2v_rYO8I-28" value="" style="swimlane;childLayout=stackLayout;horizontal=1;startSize=19;horizontalStack=0;fillColor=#e1d5e7;rounded=1;fontSize=14;fontStyle=0;strokeWidth=2;resizeParent=0;resizeLast=1;shadow=0;dashed=0;align=center;strokeColor=#9673a6;" parent="1" vertex="1">
                    <mxGeometry x="560" y="230" width="90" height="130" as="geometry">
                        <mxRectangle x="260" y="240" width="50" height="40" as="alternateBounds"/>
                    </mxGeometry>
                </mxCell>
                <mxCell id="K8wivl5P5FMc2v_rYO8I-29" value="Single Chat" style="text;html=1;align=center;verticalAlign=middle;resizable=0;points=[];;autosize=1;" parent="K8wivl5P5FMc2v_rYO8I-28" vertex="1">
                    <mxGeometry y="19" width="90" height="111" as="geometry"/>
                </mxCell>
                <mxCell id="K8wivl5P5FMc2v_rYO8I-34" value="" style="swimlane;childLayout=stackLayout;horizontal=1;startSize=19;horizontalStack=0;fillColor=#ffe6cc;rounded=1;fontSize=14;fontStyle=0;strokeWidth=2;resizeParent=0;resizeLast=1;shadow=0;dashed=0;align=center;strokeColor=#d79b00;" parent="1" vertex="1">
                    <mxGeometry x="465" y="390" width="95" height="130" as="geometry">
                        <mxRectangle x="260" y="240" width="50" height="40" as="alternateBounds"/>
                    </mxGeometry>
                </mxCell>
                <mxCell id="K8wivl5P5FMc2v_rYO8I-35" value="Show Partner &lt;br&gt;Detail" style="text;html=1;align=center;verticalAlign=middle;resizable=0;points=[];;autosize=1;" parent="K8wivl5P5FMc2v_rYO8I-34" vertex="1">
                    <mxGeometry y="19" width="95" height="111" as="geometry"/>
                </mxCell>
                <mxCell id="K8wivl5P5FMc2v_rYO8I-38" value="ChatTab" style="edgeStyle=orthogonalEdgeStyle;rounded=0;orthogonalLoop=1;jettySize=auto;html=1;" parent="1" source="K8wivl5P5FMc2v_rYO8I-24" target="K8wivl5P5FMc2v_rYO8I-26" edge="1">
                    <mxGeometry y="10" relative="1" as="geometry">
                        <Array as="points">
                            <mxPoint x="370" y="340"/>
                            <mxPoint x="370" y="340"/>
                        </Array>
                        <mxPoint as="offset"/>
                    </mxGeometry>
                </mxCell>
                <mxCell id="K8wivl5P5FMc2v_rYO8I-39" style="edgeStyle=orthogonalEdgeStyle;rounded=0;orthogonalLoop=1;jettySize=auto;html=1;" parent="1" source="K8wivl5P5FMc2v_rYO8I-24" target="K8wivl5P5FMc2v_rYO8I-35" edge="1">
                    <mxGeometry relative="1" as="geometry">
                        <Array as="points">
                            <mxPoint x="320" y="460"/>
                        </Array>
                    </mxGeometry>
                </mxCell>
                <mxCell id="K8wivl5P5FMc2v_rYO8I-57" value="ShowDetail" style="text;html=1;align=center;verticalAlign=middle;resizable=0;points=[];;labelBackgroundColor=none;" parent="K8wivl5P5FMc2v_rYO8I-39" vertex="1" connectable="0">
                    <mxGeometry x="-0.3871" y="1" relative="1" as="geometry">
                        <mxPoint x="49" y="15" as="offset"/>
                    </mxGeometry>
                </mxCell>
                <mxCell id="K8wivl5P5FMc2v_rYO8I-40" style="edgeStyle=orthogonalEdgeStyle;rounded=0;orthogonalLoop=1;jettySize=auto;html=1;" parent="1" source="K8wivl5P5FMc2v_rYO8I-26" target="K8wivl5P5FMc2v_rYO8I-29" edge="1">
                    <mxGeometry relative="1" as="geometry"/>
                </mxCell>
                <mxCell id="K8wivl5P5FMc2v_rYO8I-54" value="Select Chat" style="text;html=1;align=center;verticalAlign=middle;resizable=0;points=[];;labelBackgroundColor=none;" parent="K8wivl5P5FMc2v_rYO8I-40" vertex="1" connectable="0">
                    <mxGeometry x="-0.1333" y="-1" relative="1" as="geometry">
                        <mxPoint x="4" y="-11" as="offset"/>
                    </mxGeometry>
                </mxCell>
                <mxCell id="K8wivl5P5FMc2v_rYO8I-44" style="edgeStyle=orthogonalEdgeStyle;rounded=0;orthogonalLoop=1;jettySize=auto;html=1;entryX=-0.033;entryY=0.505;entryDx=0;entryDy=0;entryPerimeter=0;" parent="1" source="K8wivl5P5FMc2v_rYO8I-20" target="K8wivl5P5FMc2v_rYO8I-24" edge="1">
                    <mxGeometry relative="1" as="geometry"/>
                </mxCell>
                <mxCell id="4" value="Login" style="edgeLabel;html=1;align=center;verticalAlign=middle;resizable=0;points=[];" vertex="1" connectable="0" parent="K8wivl5P5FMc2v_rYO8I-44">
                    <mxGeometry x="-0.2854" relative="1" as="geometry">
                        <mxPoint x="7" y="-10" as="offset"/>
                    </mxGeometry>
                </mxCell>
                <mxCell id="K8wivl5P5FMc2v_rYO8I-45" value="" style="swimlane;childLayout=stackLayout;horizontal=1;startSize=20;horizontalStack=0;fillColor=#dae8fc;rounded=1;fontSize=14;fontStyle=0;strokeWidth=2;resizeParent=0;resizeLast=1;shadow=0;dashed=0;align=center;strokeColor=#6c8ebf;" parent="1" vertex="1">
                    <mxGeometry x="90" y="390" width="90" height="130" as="geometry">
                        <mxRectangle x="260" y="240" width="50" height="40" as="alternateBounds"/>
                    </mxGeometry>
                </mxCell>
                <mxCell id="K8wivl5P5FMc2v_rYO8I-46" value="Register" style="text;html=1;align=center;verticalAlign=middle;resizable=0;points=[];;autosize=1;" parent="K8wivl5P5FMc2v_rYO8I-45" vertex="1">
                    <mxGeometry y="20" width="90" height="110" as="geometry"/>
                </mxCell>
                <mxCell id="K8wivl5P5FMc2v_rYO8I-47" style="edgeStyle=orthogonalEdgeStyle;rounded=0;orthogonalLoop=1;jettySize=auto;html=1;entryX=0.5;entryY=0;entryDx=0;entryDy=0;startArrow=classic;startFill=1;" parent="1" source="K8wivl5P5FMc2v_rYO8I-20" target="K8wivl5P5FMc2v_rYO8I-45" edge="1">
                    <mxGeometry relative="1" as="geometry"/>
                </mxCell>
                <mxCell id="K8wivl5P5FMc2v_rYO8I-48" style="edgeStyle=orthogonalEdgeStyle;rounded=0;orthogonalLoop=1;jettySize=auto;html=1;startArrow=none;startFill=0;" parent="1" target="K8wivl5P5FMc2v_rYO8I-20" edge="1">
                    <mxGeometry relative="1" as="geometry">
                        <mxPoint x="50" y="305" as="sourcePoint"/>
                    </mxGeometry>
                </mxCell>
                <mxCell id="NVUlYLoKK_l5uXwqNmR6-1" style="edgeStyle=orthogonalEdgeStyle;rounded=0;orthogonalLoop=1;jettySize=auto;html=1;" parent="1" source="K8wivl5P5FMc2v_rYO8I-29" target="K8wivl5P5FMc2v_rYO8I-35" edge="1">
                    <mxGeometry relative="1" as="geometry">
                        <Array as="points">
                            <mxPoint x="605" y="460"/>
                        </Array>
                    </mxGeometry>
                </mxCell>
                <mxCell id="NVUlYLoKK_l5uXwqNmR6-4" value="&lt;span style=&quot;font-size: 12px;&quot;&gt;ShowDetail&lt;/span&gt;" style="edgeLabel;html=1;align=center;verticalAlign=middle;resizable=0;points=[];" parent="NVUlYLoKK_l5uXwqNmR6-1" vertex="1" connectable="0">
                    <mxGeometry x="-0.3808" y="-1" relative="1" as="geometry">
                        <mxPoint x="1" y="-17" as="offset"/>
                    </mxGeometry>
                </mxCell>
                <mxCell id="NVUlYLoKK_l5uXwqNmR6-5" value="" style="swimlane;childLayout=stackLayout;horizontal=1;startSize=19;horizontalStack=0;fillColor=#d5e8d4;rounded=1;fontSize=14;fontStyle=0;strokeWidth=2;resizeParent=0;resizeLast=1;shadow=0;dashed=0;align=center;strokeColor=#82b366;" parent="1" vertex="1">
                    <mxGeometry x="250" y="50" width="90" height="130" as="geometry">
                        <mxRectangle x="260" y="240" width="50" height="40" as="alternateBounds"/>
                    </mxGeometry>
                </mxCell>
                <mxCell id="NVUlYLoKK_l5uXwqNmR6-6" value="Profile" style="text;html=1;align=center;verticalAlign=middle;resizable=0;points=[];;autosize=1;" parent="NVUlYLoKK_l5uXwqNmR6-5" vertex="1">
                    <mxGeometry y="19" width="90" height="111" as="geometry"/>
                </mxCell>
                <mxCell id="NVUlYLoKK_l5uXwqNmR6-8" value="DiscoverTab" style="edgeStyle=orthogonalEdgeStyle;rounded=0;orthogonalLoop=1;jettySize=auto;html=1;" parent="1" source="NVUlYLoKK_l5uXwqNmR6-6" target="K8wivl5P5FMc2v_rYO8I-23" edge="1">
                    <mxGeometry relative="1" as="geometry">
                        <Array as="points">
                            <mxPoint x="330" y="200"/>
                            <mxPoint x="330" y="200"/>
                        </Array>
                    </mxGeometry>
                </mxCell>
                <mxCell id="NVUlYLoKK_l5uXwqNmR6-9" value="Discover&lt;br&gt;Tab" style="edgeStyle=orthogonalEdgeStyle;rounded=0;orthogonalLoop=1;jettySize=auto;html=1;" parent="1" source="K8wivl5P5FMc2v_rYO8I-26" target="K8wivl5P5FMc2v_rYO8I-24" edge="1">
                    <mxGeometry x="-0.0011" y="-20" relative="1" as="geometry">
                        <Array as="points">
                            <mxPoint x="380" y="280"/>
                            <mxPoint x="380" y="280"/>
                        </Array>
                        <mxPoint as="offset"/>
                    </mxGeometry>
                </mxCell>
                <mxCell id="NVUlYLoKK_l5uXwqNmR6-41" style="edgeStyle=orthogonalEdgeStyle;rounded=0;orthogonalLoop=1;jettySize=auto;html=1;" parent="1" source="K8wivl5P5FMc2v_rYO8I-45" target="K8wivl5P5FMc2v_rYO8I-23" edge="1">
                    <mxGeometry relative="1" as="geometry">
                        <Array as="points">
                            <mxPoint x="270" y="458"/>
                        </Array>
                    </mxGeometry>
                </mxCell>
                <mxCell id="5" value="Signup" style="edgeLabel;html=1;align=center;verticalAlign=middle;resizable=0;points=[];" vertex="1" connectable="0" parent="NVUlYLoKK_l5uXwqNmR6-41">
                    <mxGeometry x="-0.5403" relative="1" as="geometry">
                        <mxPoint x="16" y="-8" as="offset"/>
                    </mxGeometry>
                </mxCell>
                <mxCell id="2" style="edgeStyle=none;html=1;" edge="1" parent="1" source="NVUlYLoKK_l5uXwqNmR6-6" target="K8wivl5P5FMc2v_rYO8I-10">
                    <mxGeometry relative="1" as="geometry"/>
                </mxCell>
                <mxCell id="3" value="LogOut" style="edgeLabel;html=1;align=center;verticalAlign=middle;resizable=0;points=[];" vertex="1" connectable="0" parent="2">
                    <mxGeometry x="0.2881" y="2" relative="1" as="geometry">
                        <mxPoint y="-22" as="offset"/>
                    </mxGeometry>
                </mxCell>
            </root>
        </mxGraphModel>
    </diagram>
</mxfile>